%TF.GenerationSoftware,KiCad,Pcbnew,(6.0.9)*%
%TF.CreationDate,2023-04-18T10:07:27+02:00*%
%TF.ProjectId,midi-biels-2,6d696469-2d62-4696-956c-732d322e6b69,rev?*%
%TF.SameCoordinates,Original*%
%TF.FileFunction,Paste,Top*%
%TF.FilePolarity,Positive*%
%FSLAX46Y46*%
G04 Gerber Fmt 4.6, Leading zero omitted, Abs format (unit mm)*
G04 Created by KiCad (PCBNEW (6.0.9)) date 2023-04-18 10:07:27*
%MOMM*%
%LPD*%
G01*
G04 APERTURE LIST*
G04 APERTURE END LIST*
G36*
X54992121Y-59020002D02*
G01*
X55038614Y-59073658D01*
X55050000Y-59126000D01*
X55050000Y-63481885D01*
X55054475Y-63497124D01*
X55055865Y-63498329D01*
X55063548Y-63500000D01*
X78324000Y-63500000D01*
X78392121Y-63520002D01*
X78438614Y-63573658D01*
X78450000Y-63626000D01*
X78450000Y-66174000D01*
X78429998Y-66242121D01*
X78376342Y-66288614D01*
X78324000Y-66300000D01*
X45276000Y-66300000D01*
X45207879Y-66279998D01*
X45161386Y-66226342D01*
X45150000Y-66174000D01*
X45150000Y-63626000D01*
X45170002Y-63557879D01*
X45223658Y-63511386D01*
X45276000Y-63500000D01*
X52131885Y-63500000D01*
X52147124Y-63495525D01*
X52148329Y-63494135D01*
X52150000Y-63486452D01*
X52150000Y-59126000D01*
X52170002Y-59057879D01*
X52223658Y-59011386D01*
X52276000Y-59000000D01*
X54924000Y-59000000D01*
X54992121Y-59020002D01*
G37*
G36*
X78389851Y-45220002D02*
G01*
X78436344Y-45273658D01*
X78447710Y-45328250D01*
X78402210Y-47876250D01*
X78380995Y-47944002D01*
X78326518Y-47989530D01*
X78276230Y-48000000D01*
X55068115Y-48000000D01*
X55052876Y-48004475D01*
X55051671Y-48005865D01*
X55050000Y-48013548D01*
X55050000Y-52524000D01*
X55029998Y-52592121D01*
X54976342Y-52638614D01*
X54924000Y-52650000D01*
X52276000Y-52650000D01*
X52207879Y-52629998D01*
X52161386Y-52576342D01*
X52150000Y-52524000D01*
X52150000Y-48018115D01*
X52145525Y-48002876D01*
X52144135Y-48001671D01*
X52136452Y-48000000D01*
X45276000Y-48000000D01*
X45207879Y-47979998D01*
X45161386Y-47926342D01*
X45150000Y-47874000D01*
X45150000Y-45326000D01*
X45170002Y-45257879D01*
X45223658Y-45211386D01*
X45276000Y-45200000D01*
X78321730Y-45200000D01*
X78389851Y-45220002D01*
G37*
M02*
