%TF.GenerationSoftware,KiCad,Pcbnew,(6.0.9)*%
%TF.CreationDate,2023-04-18T10:07:27+02:00*%
%TF.ProjectId,midi-biels-2,6d696469-2d62-4696-956c-732d322e6b69,rev?*%
%TF.SameCoordinates,Original*%
%TF.FileFunction,Legend,Bot*%
%TF.FilePolarity,Positive*%
%FSLAX46Y46*%
G04 Gerber Fmt 4.6, Leading zero omitted, Abs format (unit mm)*
G04 Created by KiCad (PCBNEW (6.0.9)) date 2023-04-18 10:07:27*
%MOMM*%
%LPD*%
G01*
G04 APERTURE LIST*
%ADD10C,0.150000*%
G04 APERTURE END LIST*
D10*
X66114285Y-65404761D02*
X65971428Y-65452380D01*
X65733333Y-65452380D01*
X65638095Y-65404761D01*
X65590476Y-65357142D01*
X65542857Y-65261904D01*
X65542857Y-65166666D01*
X65590476Y-65071428D01*
X65638095Y-65023809D01*
X65733333Y-64976190D01*
X65923809Y-64928571D01*
X66019047Y-64880952D01*
X66066666Y-64833333D01*
X66114285Y-64738095D01*
X66114285Y-64642857D01*
X66066666Y-64547619D01*
X66019047Y-64500000D01*
X65923809Y-64452380D01*
X65685714Y-64452380D01*
X65542857Y-64500000D01*
X64685714Y-64785714D02*
X64685714Y-65452380D01*
X65114285Y-64785714D02*
X65114285Y-65309523D01*
X65066666Y-65404761D01*
X64971428Y-65452380D01*
X64828571Y-65452380D01*
X64733333Y-65404761D01*
X64685714Y-65357142D01*
X64209523Y-64785714D02*
X64209523Y-65785714D01*
X64209523Y-64833333D02*
X64114285Y-64785714D01*
X63923809Y-64785714D01*
X63828571Y-64833333D01*
X63780952Y-64880952D01*
X63733333Y-64976190D01*
X63733333Y-65261904D01*
X63780952Y-65357142D01*
X63828571Y-65404761D01*
X63923809Y-65452380D01*
X64114285Y-65452380D01*
X64209523Y-65404761D01*
X62923809Y-65404761D02*
X63019047Y-65452380D01*
X63209523Y-65452380D01*
X63304761Y-65404761D01*
X63352380Y-65309523D01*
X63352380Y-64928571D01*
X63304761Y-64833333D01*
X63209523Y-64785714D01*
X63019047Y-64785714D01*
X62923809Y-64833333D01*
X62876190Y-64928571D01*
X62876190Y-65023809D01*
X63352380Y-65119047D01*
X62447619Y-65452380D02*
X62447619Y-64785714D01*
X62447619Y-64976190D02*
X62400000Y-64880952D01*
X62352380Y-64833333D01*
X62257142Y-64785714D01*
X62161904Y-64785714D01*
X61828571Y-65452380D02*
X61828571Y-64452380D01*
X61828571Y-64833333D02*
X61733333Y-64785714D01*
X61542857Y-64785714D01*
X61447619Y-64833333D01*
X61400000Y-64880952D01*
X61352380Y-64976190D01*
X61352380Y-65261904D01*
X61400000Y-65357142D01*
X61447619Y-65404761D01*
X61542857Y-65452380D01*
X61733333Y-65452380D01*
X61828571Y-65404761D01*
X60923809Y-65452380D02*
X60923809Y-64785714D01*
X60923809Y-64452380D02*
X60971428Y-64500000D01*
X60923809Y-64547619D01*
X60876190Y-64500000D01*
X60923809Y-64452380D01*
X60923809Y-64547619D01*
X60066666Y-65404761D02*
X60161904Y-65452380D01*
X60352380Y-65452380D01*
X60447619Y-65404761D01*
X60495238Y-65309523D01*
X60495238Y-64928571D01*
X60447619Y-64833333D01*
X60352380Y-64785714D01*
X60161904Y-64785714D01*
X60066666Y-64833333D01*
X60019047Y-64928571D01*
X60019047Y-65023809D01*
X60495238Y-65119047D01*
X59447619Y-65452380D02*
X59542857Y-65404761D01*
X59590476Y-65309523D01*
X59590476Y-64452380D01*
X59114285Y-65404761D02*
X59019047Y-65452380D01*
X58828571Y-65452380D01*
X58733333Y-65404761D01*
X58685714Y-65309523D01*
X58685714Y-65261904D01*
X58733333Y-65166666D01*
X58828571Y-65119047D01*
X58971428Y-65119047D01*
X59066666Y-65071428D01*
X59114285Y-64976190D01*
X59114285Y-64928571D01*
X59066666Y-64833333D01*
X58971428Y-64785714D01*
X58828571Y-64785714D01*
X58733333Y-64833333D01*
X74478571Y-49380952D02*
X74526190Y-49523809D01*
X74573809Y-49571428D01*
X74669047Y-49619047D01*
X74811904Y-49619047D01*
X74907142Y-49571428D01*
X74954761Y-49523809D01*
X75002380Y-49428571D01*
X75002380Y-49047619D01*
X74002380Y-49047619D01*
X74002380Y-49380952D01*
X74050000Y-49476190D01*
X74097619Y-49523809D01*
X74192857Y-49571428D01*
X74288095Y-49571428D01*
X74383333Y-49523809D01*
X74430952Y-49476190D01*
X74478571Y-49380952D01*
X74478571Y-49047619D01*
X74954761Y-50428571D02*
X75002380Y-50333333D01*
X75002380Y-50142857D01*
X74954761Y-50047619D01*
X74859523Y-50000000D01*
X74478571Y-50000000D01*
X74383333Y-50047619D01*
X74335714Y-50142857D01*
X74335714Y-50333333D01*
X74383333Y-50428571D01*
X74478571Y-50476190D01*
X74573809Y-50476190D01*
X74669047Y-50000000D01*
X75002380Y-50904761D02*
X74002380Y-50904761D01*
X75002380Y-51476190D01*
X74002380Y-51476190D01*
X74954761Y-52333333D02*
X75002380Y-52238095D01*
X75002380Y-52047619D01*
X74954761Y-51952380D01*
X74859523Y-51904761D01*
X74478571Y-51904761D01*
X74383333Y-51952380D01*
X74335714Y-52047619D01*
X74335714Y-52238095D01*
X74383333Y-52333333D01*
X74478571Y-52380952D01*
X74573809Y-52380952D01*
X74669047Y-51904761D01*
X75002380Y-53285714D02*
X75002380Y-52809523D01*
X74002380Y-52809523D01*
X74335714Y-54047619D02*
X75002380Y-54047619D01*
X74335714Y-53619047D02*
X74859523Y-53619047D01*
X74954761Y-53666666D01*
X75002380Y-53761904D01*
X75002380Y-53904761D01*
X74954761Y-54000000D01*
X74907142Y-54047619D01*
X75002380Y-54428571D02*
X74335714Y-54952380D01*
X74335714Y-54428571D02*
X75002380Y-54952380D01*
X74954761Y-55285714D02*
X75002380Y-55428571D01*
X75002380Y-55666666D01*
X74954761Y-55761904D01*
X74907142Y-55809523D01*
X74811904Y-55857142D01*
X74716666Y-55857142D01*
X74621428Y-55809523D01*
X74573809Y-55761904D01*
X74526190Y-55666666D01*
X74478571Y-55476190D01*
X74430952Y-55380952D01*
X74383333Y-55333333D01*
X74288095Y-55285714D01*
X74192857Y-55285714D01*
X74097619Y-55333333D01*
X74050000Y-55380952D01*
X74002380Y-55476190D01*
X74002380Y-55714285D01*
X74050000Y-55857142D01*
X74335714Y-56285714D02*
X75335714Y-56285714D01*
X74383333Y-56285714D02*
X74335714Y-56380952D01*
X74335714Y-56571428D01*
X74383333Y-56666666D01*
X74430952Y-56714285D01*
X74526190Y-56761904D01*
X74811904Y-56761904D01*
X74907142Y-56714285D01*
X74954761Y-56666666D01*
X75002380Y-56571428D01*
X75002380Y-56380952D01*
X74954761Y-56285714D01*
X75002380Y-57333333D02*
X74954761Y-57238095D01*
X74907142Y-57190476D01*
X74811904Y-57142857D01*
X74526190Y-57142857D01*
X74430952Y-57190476D01*
X74383333Y-57238095D01*
X74335714Y-57333333D01*
X74335714Y-57476190D01*
X74383333Y-57571428D01*
X74430952Y-57619047D01*
X74526190Y-57666666D01*
X74811904Y-57666666D01*
X74907142Y-57619047D01*
X74954761Y-57571428D01*
X75002380Y-57476190D01*
X75002380Y-57333333D01*
X75002380Y-58238095D02*
X74954761Y-58142857D01*
X74907142Y-58095238D01*
X74811904Y-58047619D01*
X74526190Y-58047619D01*
X74430952Y-58095238D01*
X74383333Y-58142857D01*
X74335714Y-58238095D01*
X74335714Y-58380952D01*
X74383333Y-58476190D01*
X74430952Y-58523809D01*
X74526190Y-58571428D01*
X74811904Y-58571428D01*
X74907142Y-58523809D01*
X74954761Y-58476190D01*
X75002380Y-58380952D01*
X75002380Y-58238095D01*
X75002380Y-59000000D02*
X74335714Y-59000000D01*
X74526190Y-59000000D02*
X74430952Y-59047619D01*
X74383333Y-59095238D01*
X74335714Y-59190476D01*
X74335714Y-59285714D01*
X74907142Y-59619047D02*
X74954761Y-59666666D01*
X75002380Y-59619047D01*
X74954761Y-59571428D01*
X74907142Y-59619047D01*
X75002380Y-59619047D01*
X74335714Y-60095238D02*
X75002380Y-60095238D01*
X74430952Y-60095238D02*
X74383333Y-60142857D01*
X74335714Y-60238095D01*
X74335714Y-60380952D01*
X74383333Y-60476190D01*
X74478571Y-60523809D01*
X75002380Y-60523809D01*
X74954761Y-61380952D02*
X75002380Y-61285714D01*
X75002380Y-61095238D01*
X74954761Y-61000000D01*
X74859523Y-60952380D01*
X74478571Y-60952380D01*
X74383333Y-61000000D01*
X74335714Y-61095238D01*
X74335714Y-61285714D01*
X74383333Y-61380952D01*
X74478571Y-61428571D01*
X74573809Y-61428571D01*
X74669047Y-60952380D01*
X74335714Y-61714285D02*
X74335714Y-62095238D01*
X74002380Y-61857142D02*
X74859523Y-61857142D01*
X74954761Y-61904761D01*
X75002380Y-62000000D01*
X75002380Y-62095238D01*
X64923809Y-45902380D02*
X64352380Y-45902380D01*
X64638095Y-46902380D02*
X64638095Y-45902380D01*
X64019047Y-46902380D02*
X64019047Y-46235714D01*
X64019047Y-46426190D02*
X63971428Y-46330952D01*
X63923809Y-46283333D01*
X63828571Y-46235714D01*
X63733333Y-46235714D01*
X62971428Y-46902380D02*
X62971428Y-46378571D01*
X63019047Y-46283333D01*
X63114285Y-46235714D01*
X63304761Y-46235714D01*
X63400000Y-46283333D01*
X62971428Y-46854761D02*
X63066666Y-46902380D01*
X63304761Y-46902380D01*
X63400000Y-46854761D01*
X63447619Y-46759523D01*
X63447619Y-46664285D01*
X63400000Y-46569047D01*
X63304761Y-46521428D01*
X63066666Y-46521428D01*
X62971428Y-46473809D01*
X62495238Y-46902380D02*
X62495238Y-46235714D01*
X62495238Y-45902380D02*
X62542857Y-45950000D01*
X62495238Y-45997619D01*
X62447619Y-45950000D01*
X62495238Y-45902380D01*
X62495238Y-45997619D01*
X62019047Y-46235714D02*
X62019047Y-46902380D01*
X62019047Y-46330952D02*
X61971428Y-46283333D01*
X61876190Y-46235714D01*
X61733333Y-46235714D01*
X61638095Y-46283333D01*
X61590476Y-46378571D01*
X61590476Y-46902380D01*
X61114285Y-46521428D02*
X60352380Y-46521428D01*
X59923809Y-46854761D02*
X59780952Y-46902380D01*
X59542857Y-46902380D01*
X59447619Y-46854761D01*
X59400000Y-46807142D01*
X59352380Y-46711904D01*
X59352380Y-46616666D01*
X59400000Y-46521428D01*
X59447619Y-46473809D01*
X59542857Y-46426190D01*
X59733333Y-46378571D01*
X59828571Y-46330952D01*
X59876190Y-46283333D01*
X59923809Y-46188095D01*
X59923809Y-46092857D01*
X59876190Y-45997619D01*
X59828571Y-45950000D01*
X59733333Y-45902380D01*
X59495238Y-45902380D01*
X59352380Y-45950000D01*
X58495238Y-46854761D02*
X58590476Y-46902380D01*
X58780952Y-46902380D01*
X58876190Y-46854761D01*
X58923809Y-46807142D01*
X58971428Y-46711904D01*
X58971428Y-46426190D01*
X58923809Y-46330952D01*
X58876190Y-46283333D01*
X58780952Y-46235714D01*
X58590476Y-46235714D01*
X58495238Y-46283333D01*
X58066666Y-46902380D02*
X58066666Y-46235714D01*
X58066666Y-45902380D02*
X58114285Y-45950000D01*
X58066666Y-45997619D01*
X58019047Y-45950000D01*
X58066666Y-45902380D01*
X58066666Y-45997619D01*
X57209523Y-46854761D02*
X57304761Y-46902380D01*
X57495238Y-46902380D01*
X57590476Y-46854761D01*
X57638095Y-46759523D01*
X57638095Y-46378571D01*
X57590476Y-46283333D01*
X57495238Y-46235714D01*
X57304761Y-46235714D01*
X57209523Y-46283333D01*
X57161904Y-46378571D01*
X57161904Y-46473809D01*
X57638095Y-46569047D01*
X56733333Y-46235714D02*
X56733333Y-46902380D01*
X56733333Y-46330952D02*
X56685714Y-46283333D01*
X56590476Y-46235714D01*
X56447619Y-46235714D01*
X56352380Y-46283333D01*
X56304761Y-46378571D01*
X56304761Y-46902380D01*
X55400000Y-46854761D02*
X55495238Y-46902380D01*
X55685714Y-46902380D01*
X55780952Y-46854761D01*
X55828571Y-46807142D01*
X55876190Y-46711904D01*
X55876190Y-46426190D01*
X55828571Y-46330952D01*
X55780952Y-46283333D01*
X55685714Y-46235714D01*
X55495238Y-46235714D01*
X55400000Y-46283333D01*
X54590476Y-46854761D02*
X54685714Y-46902380D01*
X54876190Y-46902380D01*
X54971428Y-46854761D01*
X55019047Y-46759523D01*
X55019047Y-46378571D01*
X54971428Y-46283333D01*
X54876190Y-46235714D01*
X54685714Y-46235714D01*
X54590476Y-46283333D01*
X54542857Y-46378571D01*
X54542857Y-46473809D01*
X55019047Y-46569047D01*
X54114285Y-46807142D02*
X54066666Y-46854761D01*
X54114285Y-46902380D01*
X54161904Y-46854761D01*
X54114285Y-46807142D01*
X54114285Y-46902380D01*
X53209523Y-46854761D02*
X53304761Y-46902380D01*
X53495238Y-46902380D01*
X53590476Y-46854761D01*
X53638095Y-46807142D01*
X53685714Y-46711904D01*
X53685714Y-46426190D01*
X53638095Y-46330952D01*
X53590476Y-46283333D01*
X53495238Y-46235714D01*
X53304761Y-46235714D01*
X53209523Y-46283333D01*
X52638095Y-46902380D02*
X52733333Y-46854761D01*
X52780952Y-46807142D01*
X52828571Y-46711904D01*
X52828571Y-46426190D01*
X52780952Y-46330952D01*
X52733333Y-46283333D01*
X52638095Y-46235714D01*
X52495238Y-46235714D01*
X52400000Y-46283333D01*
X52352380Y-46330952D01*
X52304761Y-46426190D01*
X52304761Y-46711904D01*
X52352380Y-46807142D01*
X52400000Y-46854761D01*
X52495238Y-46902380D01*
X52638095Y-46902380D01*
X51876190Y-46902380D02*
X51876190Y-46235714D01*
X51876190Y-46330952D02*
X51828571Y-46283333D01*
X51733333Y-46235714D01*
X51590476Y-46235714D01*
X51495238Y-46283333D01*
X51447619Y-46378571D01*
X51447619Y-46902380D01*
X51447619Y-46378571D02*
X51400000Y-46283333D01*
X51304761Y-46235714D01*
X51161904Y-46235714D01*
X51066666Y-46283333D01*
X51019047Y-46378571D01*
X51019047Y-46902380D01*
%LPC*%
M02*
