%TF.GenerationSoftware,KiCad,Pcbnew,(6.0.9)*%
%TF.CreationDate,2023-04-18T10:07:27+02:00*%
%TF.ProjectId,midi-biels-2,6d696469-2d62-4696-956c-732d322e6b69,rev?*%
%TF.SameCoordinates,Original*%
%TF.FileFunction,Profile,NP*%
%FSLAX46Y46*%
G04 Gerber Fmt 4.6, Leading zero omitted, Abs format (unit mm)*
G04 Created by KiCad (PCBNEW (6.0.9)) date 2023-04-18 10:07:27*
%MOMM*%
%LPD*%
G01*
G04 APERTURE LIST*
%TA.AperFunction,Profile*%
%ADD10C,0.100000*%
%TD*%
G04 APERTURE END LIST*
D10*
X48100000Y-63450000D02*
X48100000Y-48050000D01*
X48100000Y-70750000D02*
X48100000Y-66350000D01*
X66100000Y-66350000D02*
X62100000Y-66350000D01*
X52100000Y-63450000D02*
X48100000Y-63450000D01*
X45100000Y-40750000D02*
X45100000Y-45150000D01*
X80900000Y-49100000D02*
X78500000Y-48050000D01*
X62100000Y-63450000D02*
X62100000Y-48050000D01*
X59100000Y-66350000D02*
X55100000Y-66350000D01*
X73100000Y-66350000D02*
X69100000Y-66350000D01*
X59100000Y-63450000D02*
X59100000Y-48050000D01*
X76100000Y-60400000D02*
X76100000Y-62500000D01*
X52100000Y-40750000D02*
X55100000Y-40750000D01*
X48100000Y-70750000D02*
X45100000Y-70750000D01*
X76100000Y-60400000D02*
X80900000Y-58900000D01*
X45100000Y-66350000D02*
X45100000Y-63450000D01*
X66100000Y-70750000D02*
X66100000Y-66350000D01*
X78500000Y-63550000D02*
X78500000Y-66350000D01*
X45100000Y-40750000D02*
X48100000Y-40750000D01*
X78500000Y-45150000D02*
X78500000Y-48050000D01*
X52100000Y-63450000D02*
X52100000Y-48050000D01*
X52100000Y-66350000D02*
X48100000Y-66350000D01*
X62100000Y-40750000D02*
X62100000Y-45150000D01*
X69100000Y-63450000D02*
X69100000Y-48050000D01*
X76100000Y-70750000D02*
X76100000Y-66350000D01*
X55100000Y-63450000D02*
X55100000Y-48050000D01*
X76100000Y-52500000D02*
X76100000Y-54600000D01*
X59100000Y-48050000D02*
X55100000Y-48050000D01*
X69100000Y-70750000D02*
X66100000Y-70750000D01*
X69100000Y-45150000D02*
X73100000Y-45150000D01*
X59100000Y-70750000D02*
X59100000Y-66350000D01*
X48100000Y-45150000D02*
X52100000Y-45150000D01*
X80900000Y-57000000D02*
X80900000Y-58900000D01*
X76100000Y-40750000D02*
X76100000Y-45150000D01*
X80900000Y-57000000D02*
X76100000Y-54600000D01*
X73100000Y-40750000D02*
X76100000Y-40750000D01*
X55100000Y-40750000D02*
X55100000Y-45150000D01*
X52100000Y-40750000D02*
X52100000Y-45150000D01*
X76100000Y-45150000D02*
X78500000Y-45150000D01*
X45100000Y-70750000D02*
X45100000Y-66350000D01*
X80900000Y-49100000D02*
X80900000Y-51000000D01*
X66100000Y-63450000D02*
X66100000Y-48050000D01*
X45100000Y-48050000D02*
X45100000Y-45150000D01*
X66100000Y-48050000D02*
X62100000Y-48050000D01*
X59100000Y-40750000D02*
X62100000Y-40750000D01*
X76100000Y-70750000D02*
X73100000Y-70750000D01*
X52100000Y-70750000D02*
X52100000Y-66350000D01*
X66100000Y-40750000D02*
X69100000Y-40750000D01*
X62100000Y-70750000D02*
X62100000Y-66350000D01*
X52100000Y-48050000D02*
X48100000Y-48050000D01*
X73100000Y-48050000D02*
X69100000Y-48050000D01*
X55100000Y-45150000D02*
X59100000Y-45150000D01*
X48100000Y-40750000D02*
X48100000Y-45150000D01*
X66100000Y-40750000D02*
X66100000Y-45150000D01*
X69100000Y-40750000D02*
X69100000Y-45150000D01*
X78500000Y-66350000D02*
X76100000Y-66350000D01*
X73100000Y-70750000D02*
X73100000Y-66350000D01*
X55100000Y-70750000D02*
X52100000Y-70750000D01*
X55100000Y-70750000D02*
X55100000Y-66350000D01*
X73100000Y-63450000D02*
X69100000Y-63450000D01*
X62100000Y-70750000D02*
X59100000Y-70750000D01*
X62100000Y-45150000D02*
X66100000Y-45150000D01*
X73100000Y-63450000D02*
X73100000Y-48050000D01*
X66100000Y-63450000D02*
X62100000Y-63450000D01*
X59100000Y-40750000D02*
X59100000Y-45150000D01*
X73100000Y-40750000D02*
X73100000Y-45150000D01*
X59100000Y-63450000D02*
X55100000Y-63450000D01*
X69100000Y-70750000D02*
X69100000Y-66350000D01*
X45100000Y-63450000D02*
X45100000Y-48050000D01*
X76100000Y-52500000D02*
X80900000Y-51000000D01*
X78500000Y-63550000D02*
X76100000Y-62500000D01*
M02*
